<svg width="60" height="60" viewBox="0 0 60 60" fill="none" xmlns="http://www.w3.org/2000/svg">
  <path fill-rule="evenodd" clip-rule="evenodd" d="M29.7887 59.25C46.2406 59.25 59.5775 45.9864 59.5775 29.625C59.5775 13.2636 46.2406 0 29.7887 0C13.3369 0 0 13.2636 0 29.625C0 45.9864 13.3369 59.25 29.7887 59.25Z" fill="#828282"/>
  <path transform="translate(14,25)" d="M0.176758 8.91675V0.350342H1.99316V7.41675H5.46777V8.91675H0.176758ZM14.7373 4.62183C14.7373 6.03979 14.3857 7.12964 13.6826 7.89136C12.9795 8.65308 11.9717 9.03394 10.6592 9.03394C9.34668 9.03394 8.33887 8.65308 7.63574 7.89136C6.93262 7.12964 6.58105 6.03589 6.58105 4.61011C6.58105 3.18433 6.93262 2.09644 7.63574 1.34644C8.34277 0.592529 9.35449 0.215576 10.6709 0.215576C11.9873 0.215576 12.9932 0.594482 13.6885 1.35229C14.3877 2.11011 14.7373 3.19995 14.7373 4.62183ZM8.48535 4.62183C8.48535 5.57886 8.66699 6.29956 9.03027 6.78394C9.39355 7.26831 9.93652 7.5105 10.6592 7.5105C12.1084 7.5105 12.833 6.54761 12.833 4.62183C12.833 2.69214 12.1123 1.72729 10.6709 1.72729C9.94824 1.72729 9.40332 1.97144 9.03613 2.45972C8.66895 2.94409 8.48535 3.66479 8.48535 4.62183ZM19.7646 4.1062H23.1631V8.54761C22.6123 8.72729 22.0928 8.85229 21.6045 8.92261C21.1201 8.99683 20.624 9.03394 20.1162 9.03394C18.8232 9.03394 17.835 8.65503 17.1514 7.89722C16.4717 7.1355 16.1318 6.0437 16.1318 4.62183C16.1318 3.23901 16.5264 2.16089 17.3154 1.38745C18.1084 0.614014 19.2061 0.227295 20.6084 0.227295C21.4873 0.227295 22.335 0.403076 23.1514 0.754639L22.5479 2.20776C21.9229 1.89526 21.2725 1.73901 20.5967 1.73901C19.8115 1.73901 19.1826 2.00269 18.71 2.53003C18.2373 3.05737 18.001 3.76636 18.001 4.65698C18.001 5.58667 18.1904 6.29761 18.5693 6.78979C18.9521 7.27808 19.5068 7.52222 20.2334 7.52222C20.6123 7.52222 20.9971 7.48315 21.3877 7.40503V5.61792H19.7646V4.1062ZM32.9834 4.62183C32.9834 6.03979 32.6318 7.12964 31.9287 7.89136C31.2256 8.65308 30.2178 9.03394 28.9053 9.03394C27.5928 9.03394 26.585 8.65308 25.8818 7.89136C25.1787 7.12964 24.8271 6.03589 24.8271 4.61011C24.8271 3.18433 25.1787 2.09644 25.8818 1.34644C26.5889 0.592529 27.6006 0.215576 28.917 0.215576C30.2334 0.215576 31.2393 0.594482 31.9346 1.35229C32.6338 2.11011 32.9834 3.19995 32.9834 4.62183ZM26.7314 4.62183C26.7314 5.57886 26.9131 6.29956 27.2764 6.78394C27.6396 7.26831 28.1826 7.5105 28.9053 7.5105C30.3545 7.5105 31.0791 6.54761 31.0791 4.62183C31.0791 2.69214 30.3584 1.72729 28.917 1.72729C28.1943 1.72729 27.6494 1.97144 27.2822 2.45972C26.915 2.94409 26.7314 3.66479 26.7314 4.62183Z" fill="white"/>
</svg>
